<svg id="Layer_1" data-name="Layer 1" xmlns="http://www.w3.org/2000/svg" viewBox="0 0 368.9 385.14"><defs><style>.cls-1{fill:#4fc457;}.cls-2{fill:#2157a2;}.cls-3{fill:#cfe3f5;}.cls-4{fill:#ebf1f8;}.cls-5{fill:#bababa;}.cls-6{fill:#273c69;}.cls-7{fill:#3367af;}.cls-8{fill:#b3d4e9;}.cls-9{fill:#7fe28d;}</style></defs><path class="cls-1" d="M147.78,310.61v215.5a184.51,184.51,0,0,1,0-215.5Z" transform="translate(-113.05 -217.68)"/><path class="cls-1" d="M334.24,237.58a65,65,0,0,0-14.38,22.89H202.08a185,185,0,0,1,132.16-22.89Z" transform="translate(-113.05 -217.68)"/><path class="cls-1" d="M482,418.36a184.32,184.32,0,0,1-87.54,157V346.83A65.33,65.33,0,0,0,442.7,304.6,183.65,183.65,0,0,1,482,418.36Z" transform="translate(-113.05 -217.68)"/><path class="cls-2" d="M394.41,346.83v228.5a183.14,183.14,0,0,1-22.54,11.87V347.52a64.43,64.43,0,0,0,9.27.66A65.14,65.14,0,0,0,394.41,346.83Z" transform="translate(-113.05 -217.68)"/><path class="cls-3" d="M203.31,285.76V550.43a6.46,6.46,0,0,0,0,12.42V577a184.94,184.94,0,0,1-33-25V302.47c0-10.79,9.74-19.54,21.75-19.54.38,0,.76,0,1.13,0l.82.05.33,0a5.51,5.51,0,0,1,.57.06,3.47,3.47,0,0,1,.45.06l.46.07.47.07.68.13.78.18.78.21q.56.15,1.08.33c.46.15.9.31,1.34.49s.77.32,1.15.5l.59.29C202.91,285.53,203.11,285.64,203.31,285.76Z" transform="translate(-113.05 -217.68)"/><path class="cls-4" d="M317.76,298.51H223.14a15.52,15.52,0,0,1-12.7-6.5c-.24-.34-.49-.67-.76-1l-.32-.39-.5-.57c-.29-.31-.58-.61-.89-.9l-.07-.07c-.28-.27-.57-.53-.87-.79s-.63-.51-.95-.76l-.06,0c-.31-.23-.62-.46-1-.68l-.24-.16-.75-.46c-.25-.15-.51-.29-.77-.43V550.43a6.32,6.32,0,0,1,1.8-.26h36a6.47,6.47,0,1,1,0,12.94h-36a6.32,6.32,0,0,1-1.8-.26V577a6.32,6.32,0,0,1,1.8-.26h36a6.47,6.47,0,1,1,0,12.94H229a184.91,184.91,0,0,0,142.89-2.46V347.52A65.3,65.3,0,0,1,317.76,298.51Zm19.89,82.73h-22.3v22.3h-22.3v22.29h44.6v66.9H248.46v-22.3h-22.3v22.3h-22.3v-22.3h22.3v-22.3h-22.3V403.54h22.3v-22.3h-22.3v-22.3h22.3v22.3h22.3v-22.3h44.59v22.3h22.3v-22.3h22.3Zm-4.07,208.42H267.53a6.47,6.47,0,1,1,0-12.94h66.05a6.47,6.47,0,1,1,0,12.94Zm0-26.55H267.53a6.47,6.47,0,1,1,0-12.94h66.05a6.47,6.47,0,1,1,0,12.94Z" transform="translate(-113.05 -217.68)"/><path class="cls-4" d="M208,299.15l-.07-.07.07.06Z" transform="translate(-113.05 -217.68)"/><path class="cls-4" d="M209.68,301l-.32-.39.29.34Z" transform="translate(-113.05 -217.68)"/><rect class="cls-4" x="90.81" y="141.26" width="22.3" height="22.3"/><rect class="cls-4" x="90.81" y="252.75" width="22.3" height="22.3"/><path class="cls-4" d="M247.63,583.18a6.48,6.48,0,0,1-6.47,6.48H229A183.82,183.82,0,0,1,203.31,577a6.32,6.32,0,0,1,1.8-.26h36A6.46,6.46,0,0,1,247.63,583.18Z" transform="translate(-113.05 -217.68)"/><polygon class="cls-4" points="135.41 275.05 135.41 252.75 113.11 252.75 113.11 230.45 90.81 230.45 90.81 185.86 113.11 185.86 113.11 163.56 135.41 163.56 135.41 141.26 180 141.26 180 163.56 202.3 163.56 202.3 185.86 180 185.86 180 208.15 224.6 208.15 224.6 275.05 135.41 275.05"/><rect class="cls-4" x="202.3" y="141.26" width="22.3" height="22.3"/><path class="cls-4" d="M340.05,583.18a6.48,6.48,0,0,1-6.47,6.48H267.53a6.47,6.47,0,1,1,0-12.94h66.05A6.46,6.46,0,0,1,340.05,583.18Z" transform="translate(-113.05 -217.68)"/><path class="cls-4" d="M333.58,550.17a6.47,6.47,0,1,1,0,12.94H267.53a6.47,6.47,0,1,1,0-12.94Z" transform="translate(-113.05 -217.68)"/><rect class="cls-5" x="80.06" y="130.5" width="155.3" height="155.3" rx="11.52"/><path class="cls-6" d="M315.89,282.93a65.55,65.55,0,0,0,1.87,15.58H223.14a15.52,15.52,0,0,1-12.7-6.5c-.24-.34-.49-.67-.76-1l-.32-.39-.5-.57c-.29-.31-.58-.61-.89-.9l-.07-.07c-.28-.27-.57-.53-.87-.79s-.63-.51-.95-.76l-.06,0c-.31-.23-.62-.46-1-.68l-.24-.16-.75-.46c-.25-.15-.51-.29-.77-.43s-.4-.23-.61-.33l-.59-.29c-.38-.18-.76-.34-1.15-.5s-.88-.34-1.34-.49-.71-.23-1.08-.33l-.78-.21-.78-.18-.68-.13-.47-.07-.46-.07a3.47,3.47,0,0,0-.45-.06,5.51,5.51,0,0,0-.57-.06l-.33,0-.82-.05c-.37,0-.75,0-1.13,0-12,0-21.75,8.75-21.75,19.54V552a184.26,184.26,0,0,1-22.54-25.84V302.85a42.38,42.38,0,0,1,42.38-42.38h129.7A65.1,65.1,0,0,0,315.89,282.93Z" transform="translate(-113.05 -217.68)"/><path class="cls-7" d="M244.8,281a6.41,6.41,0,0,1-4.82,4.82,6.93,6.93,0,0,1-1.48.17,6.48,6.48,0,0,1-6.3-8,6.41,6.41,0,0,1,4.15-4.63,5.12,5.12,0,0,1,.67-.19,6.56,6.56,0,0,1,3.59.19A6.48,6.48,0,0,1,244.8,281Z" transform="translate(-113.05 -217.68)"/><path class="cls-7" d="M302.27,279.52A6.48,6.48,0,0,1,295.8,286H259.75a6.47,6.47,0,0,1-2.09-12.59,6.28,6.28,0,0,1,2.09-.35H295.8a6.28,6.28,0,0,1,2.09.35A6.44,6.44,0,0,1,302.27,279.52Z" transform="translate(-113.05 -217.68)"/><path class="cls-8" d="M340.05,556.63a6.48,6.48,0,0,1-6.47,6.48H267.53a6.47,6.47,0,1,1,0-12.94h66.05A6.46,6.46,0,0,1,340.05,556.63Z" transform="translate(-113.05 -217.68)"/><path class="cls-8" d="M247.63,556.63a6.48,6.48,0,0,1-6.47,6.48h-36a6.32,6.32,0,0,1-1.8-.26,6.46,6.46,0,0,1,0-12.42,6.32,6.32,0,0,1,1.8-.26h36A6.46,6.46,0,0,1,247.63,556.63Z" transform="translate(-113.05 -217.68)"/><path class="cls-8" d="M340.05,583.18a6.48,6.48,0,0,1-6.47,6.48H267.53a6.47,6.47,0,1,1,0-12.94h66.05A6.46,6.46,0,0,1,340.05,583.18Z" transform="translate(-113.05 -217.68)"/><path class="cls-8" d="M247.63,583.18a6.48,6.48,0,0,1-6.47,6.48H229A183.82,183.82,0,0,1,203.31,577a6.32,6.32,0,0,1,1.8-.26h36A6.46,6.46,0,0,1,247.63,583.18Z" transform="translate(-113.05 -217.68)"/><path class="cls-9" d="M381.14,217.68a65.28,65.28,0,1,0,65.25,65.25A65,65,0,0,0,381.14,217.68Zm34.31,58.87a10,10,0,0,1-1.91,2.66l-19.13,19.13-4.72,4.73-7.22,7.21a10.2,10.2,0,0,1-14.42,0l-7.22-7.21L349.5,291.72a10.2,10.2,0,0,1,14.43-14.42l11.33,11.34,19.15-19.16,4.7-4.7a1.5,1.5,0,0,1,.24-.21,10.19,10.19,0,0,1,16.1,12Z" transform="translate(-113.05 -217.68)"/><rect class="cls-9" x="180" y="230.45" width="22.3" height="22.3"/><rect class="cls-6" x="90.81" y="141.26" width="22.3" height="22.3"/><polygon class="cls-6" points="224.6 208.15 224.6 275.05 180 275.05 180 252.75 202.3 252.75 202.3 230.45 180 230.45 180 252.75 157.71 252.75 157.71 275.05 135.41 275.05 135.41 252.75 113.11 252.75 113.11 230.45 157.71 230.45 157.71 185.86 180 185.86 180 208.15 224.6 208.15"/><rect class="cls-6" x="180" y="163.56" width="22.3" height="22.3"/><rect class="cls-6" x="202.3" y="141.26" width="22.3" height="22.3"/><polygon class="cls-6" points="135.41 208.15 135.41 185.86 157.71 185.86 157.71 163.56 180 163.56 180 141.26 135.41 141.26 135.41 163.56 113.11 163.56 113.11 185.86 90.81 185.86 90.81 230.45 113.11 230.45 113.11 208.15 135.41 208.15"/><rect class="cls-6" x="90.81" y="252.75" width="22.3" height="22.3"/></svg>